HIERARCHY
ROOT ui
{
	 OFFSET 0 0 0
	 CHANNELS 3 XPosition YPosition Z Position
	 EndSite
	 {
	 OFFSET 0 -1 0
	 }
}
ROOT li
{
	 OFFSET 0 0 0
	 CHANNELS 3 XPosition YPosition Z Position
	 EndSite
	 {
	 OFFSET 0 -1 0
	 }
}
ROOT ul
{
	 OFFSET 0 0 0
	 CHANNELS 3 XPosition YPosition Z Position
	 EndSite
	 {
	 OFFSET 0 -1 0
	 }
}
ROOT ll
{
	 OFFSET 0 0 0
	 CHANNELS 3 XPosition YPosition Z Position
	 EndSite
	 {
	 OFFSET 0 -1 0
	 }
}
ROOT tt
{
	 OFFSET 0 0 0
	 CHANNELS 3 XPosition YPosition Z Position
	 EndSite
	 {
	 OFFSET 0 -1 0
	 }
}
ROOT tb
{
	 OFFSET 0 0 0
	 CHANNELS 3 XPosition YPosition Z Position
	 EndSite
	 {
	 OFFSET 0 -1 0
	 }
}
ROOT td
{
	 OFFSET 0 0 0
	 CHANNELS 3 XPosition YPosition Z Position
	 EndSite
	 {
	 OFFSET 0 -1 0
	 }
}
ROOT v
{
	 OFFSET 0 0 0
	 CHANNELS 3 XPosition YPosition Z Position
	 EndSite
	 {
	 OFFSET 0 -1 0
	 }
}
ROOT bn
{
	 OFFSET 0 0 0
	 CHANNELS 3 XPosition YPosition Z Position
	 EndSite
	 {
	 OFFSET 0 -1 0
	 }
}
MOTION
Frames: 27
Frame Time: 0.002
-0.008027409553527832	-0.001007755994796753	0		0.18541914367675782	-2.8302626953125	0		-0.9980223388671875	-0.1803231964111328	0		-0.9024335327148437	-2.44048779296875	0		0.9542929077148438	-1.27247802734375	0		2.428689208984375	-0.6883719482421875	0		3.864666259765625	-0.1428531494140625	0		5.7994365234375	0.2882704772949219	0		-0.3080565185546875	5.82957373046875	0		
0.06629380798339844	-0.0029175069332122803	0		0.23859234619140626	-2.836951171875	0		-1.00763720703125	-0.1752897644042969	0		-0.958056640625	-2.42895947265625	0		0.9046220703125	-1.2690765380859375	0		2.4070146484375	-0.6873233642578125	0		3.85607421875	-0.13599403381347655	0		5.7975771484375	0.2689902648925781	0		-0.31152398681640625	5.82951904296875	0		
-0.01532455825805664	-0.0011424059867858887	0		0.18096676635742187	-2.82644384765625	0		-0.9953435668945313	-0.18149705505371094	0		-0.9228358764648438	-2.434418701171875	0		0.94993896484375	-1.2697130126953124	0		2.388410888671875	-0.6823191528320313	0		3.8663369140625	-0.1453572998046875	0		5.793953125	0.26870767211914065	0		-0.3139554443359375	5.82844921875	0		
0.06922220611572266	0.006822944164276123	0		0.21921903991699218	-2.834983154296875	0		-1.0249171142578124	-0.18324822998046875	0		-0.9904308471679687	-2.42975830078125	0		0.9105084228515625	-1.2544329833984376	0		2.42175927734375	-0.689891357421875	0		3.86583935546875	-0.14061761474609374	0		5.796296875	0.25733935546875	0		-0.33523733520507815	5.83158349609375	0		
0.00367623496055603	-0.0055764298439025875	0		0.23882131958007813	-2.823321533203125	0		-0.995246826171875	-0.17564321899414062	0		-0.8859698486328125	-2.432975830078125	0		0.9481109619140625	-1.24899755859375	0		2.42160693359375	-0.6641049194335937	0		3.8865556640625	-0.12912165832519532	0		5.792900390625	0.25701708984375	0		-0.3053338317871094	5.83715966796875	0		
0.05954572296142578	0.0026969330310821532	0		0.23242442321777343	-2.8273759765625	0		-1.0074578857421874	-0.17357633972167968	0		-0.95613623046875	-2.417276611328125	0		0.9427960205078125	-1.2520950927734376	0		2.40609912109375	-0.68715771484375	0		3.88026953125	-0.13434060668945313	0		5.766599609375	0.24893231201171875	0		-0.30927410888671875	5.839107421875	0		
-0.002525527000427246	-0.002729511022567749	0		0.23232501220703125	-2.823496337890625	0		-1.017419189453125	-0.168527099609375	0		-0.881353271484375	-2.426168212890625	0		0.932805419921875	-1.245138916015625	0		2.4001904296875	-0.6753157348632812	0		3.873188232421875	-0.14055674743652344	0		5.7595146484375	0.24062640380859374	0		-0.326125244140625	5.82820166015625	0		
0.04670709228515625	-0.0033794059753417967	0		0.20145472717285157	-2.820270263671875	0		-1.0432901611328125	-0.17729330444335936	0		-0.9641671752929688	-2.4193095703125	0		0.9350453491210937	-1.2393143310546875	0		2.403303466796875	-0.6835748291015625	0		3.8534072265625	-0.1416347351074219	0		5.76264013671875	0.22919940185546875	0		-0.3144764709472656	5.83898876953125	0		
0.05127435684204101	0.002471795082092285	0		0.20185264587402343	-2.81638232421875	0		-1.006778564453125	-0.1757416687011719	0		-0.966792724609375	-2.419326904296875	0		0.9375481567382813	-1.2334873046875	0		2.418001708984375	-0.6629592895507812	0		3.88401025390625	-0.1322727508544922	0		5.75115380859375	0.22893049621582032	0		-0.3015596008300781	5.84876953125	0		
0.05209628677368164	0.006374503135681152	0		0.20352093505859375	-2.8124990234375	0		-1.040964111328125	-0.17138916015625	0		-0.9671250610351563	-2.417357421875	0		0.9244380493164063	-1.2174766845703124	0		2.40460888671875	-0.6750276489257813	0		3.868792236328125	-0.1313993682861328	0		5.748943359375	0.22855654907226564	0		-0.31857489013671875	5.83889404296875	0		
0.04710459899902344	0.002354142904281616	0		0.21543605041503905	-2.810719970703125	0		-1.014001708984375	-0.178707763671875	0		-0.8943265991210938	-2.4281982421875	0		0.9203882446289062	-1.220557861328125	0		2.429813232421875	-0.6585204467773438	0		3.879825439453125	-0.1328163299560547	0		5.7419306640625	0.22123616027832033	0		-0.3673797607421875	5.82239111328125	0		
-0.03962967681884766	-0.0017272850275039673	0		0.20570138549804687	-2.800683837890625	0		-1.051681884765625	-0.17728193664550781	0		-0.909083740234375	-2.4220400390625	0		0.91863330078125	-1.220653076171875	0		2.3890712890625	-0.6602627563476563	0		3.87813427734375	-0.13308544921875	0		5.72226171875	0.22106141662597656	0		-0.3356551818847656	5.8279970703125	0		
0.03691615676879883	-0.00364288592338562	0		0.225922119140625	-2.81597607421875	0		-1.0141099243164062	-0.175692626953125	0		-0.8997597045898438	-2.43014013671875	0		0.9242237548828125	-1.2118193359375	0		2.417648681640625	-0.6557794799804687	0		3.876688720703125	-0.13335052490234375	0		5.711837890625	0.22078715515136718	0		-0.36980624389648437	5.82236328125	0		
-0.03521143341064453	0.004147891044616699	0		0.1746997833251953	-2.801437744140625	0		-1.043239501953125	-0.16732911682128906	0		-0.936039306640625	-2.422703369140625	0		0.9259710083007813	-1.2089296875	0		2.404259521484375	-0.6678093872070312	0		3.853538330078125	-0.12735720825195312	0		5.7255126953125	0.20924502563476563	0		-0.30737728881835935	5.84664453125	0		
0.044811058044433597	0.00621130895614624	0		0.24953688049316405	-2.80032958984375	0		-1.008270751953125	-0.16868513488769532	0		-0.9091295166015625	-2.416974365234375	0		0.9230272216796875	-1.1969716796875	0		2.424497314453125	-0.6432086791992188	0		3.8815791015625	-0.12293717193603515	0		5.709623046875	0.21805474853515625	0		-0.18989089965820313	5.857298828125	0		
-0.04007495880126953	0.0011861649751663207	0		0.2086588897705078	-2.78987744140625	0		-1.0131382446289063	-0.17157048034667968	0		-0.9250548095703125	-2.4127392578125	0		0.9400481567382812	-1.2042310791015625	0		2.39338232421875	-0.6650049438476563	0		3.87769140625	-0.12813725280761717	0		5.7096171875	0.20069580078125	0		-0.32359576416015623	5.83685595703125	0		
0.033213794708251955	-0.003654205083847046	0		0.23476622009277343	-2.795186767578125	0		-1.0178549194335937	-0.1754435272216797	0		-0.9309219360351563	-2.41760595703125	0		0.9034906005859376	-1.1888543701171874	0		2.419888916015625	-0.6474510498046875	0		3.8770234375	-0.1283601837158203	0		5.699970703125	0.20046400451660157	0		-0.37206503295898435	5.82245263671875	0		
-0.045287750244140626	-0.001716295003890991	0		0.21702867126464845	-2.79897412109375	0		-1.050335205078125	-0.17097828674316407	0		-0.9315903930664062	-2.41752001953125	0		0.9318029174804687	-1.197220703125	0		2.431154052734375	-0.6627124633789062	0		3.876497314453125	-0.1285728302001953	0		5.69537158203125	0.19218544006347657	0		-0.33915380859375	5.82811767578125	0		
0.03229780578613281	-0.003591744899749756	0		0.21848056030273438	-2.796972900390625	0		-1.0466962890625	-0.1669217987060547	0		-0.9581715698242188	-2.420117919921875	0		0.9026034545898437	-1.173901123046875	0		2.425056884765625	-0.6337569580078125	0		3.879150634765625	-0.12381140899658204	0		5.68597509765625	0.1909750518798828	0		-0.30895513916015627	5.8478232421875	0		
-0.03486283111572266	0.008245542526245117	0		0.21116566467285156	-2.783856201171875	0		-1.0069808959960938	-0.16528099060058593	0		-0.9295601196289063	-2.415352783203125	0		0.9052706298828125	-1.1709444580078125	0		2.41258154296875	-0.6457166748046875	0		3.878847900390625	-0.1240041732788086	0		5.6757041015625	0.1917880096435547	0		-0.3240154724121094	5.83706884765625	0		
0.03179135513305664	-0.0034888129234313964	0		0.21078248596191407	-2.783810791015625	0		-1.0472230224609376	-0.1666850280761719	0		-0.9438363647460938	-2.408071044921875	0		0.9019518432617187	-1.1739061279296874	0		2.436483154296875	-0.6330933837890625	0		3.884545654296875	-0.1312564392089844	0		5.67550537109375	0.191495361328125	0		-0.19061341857910155	5.85756591796875	0		
-0.04230007553100586	0.0014604450464248658	0		0.20844317626953124	-2.785731689453125	0		-1.0154275512695312	-0.17093424987792968	0		-0.909226806640625	-2.416362060546875	0		0.9187938232421875	-1.169096923828125	0		2.42421728515625	-0.6400315551757813	0		3.878477294921875	-0.12435633850097656	0		5.6812646484375	0.18214309692382813	0		-0.3728139343261719	5.8238212890625	0		
0.031552595138549806	-0.003347575902938843	0		0.21020155334472657	-2.783691650390625	0		-1.051529541015625	-0.17036270141601562	0		-0.9484307250976562	-2.41276123046875	0		0.8976893310546875	-1.16382470703125	0		2.41818017578125	-0.6320321655273438	0		3.887350830078125	-0.12662572479248047	0		5.6770625	0.1719193878173828	0		-0.35744281005859374	5.83274072265625	0		
-0.03536944580078125	0.008543373107910156	0		0.21504241943359376	-2.7776796875	0		-1.0375762939453126	-0.16838127136230469	0		-0.9445789794921875	-2.407665771484375	0		0.9125811767578125	-1.1619755859375	0		2.43986328125	-0.65035986328125	0		3.88728369140625	-0.12677999877929688	0		5.68110986328125	0.17960585021972655	0		-0.3410349426269531	5.841654296875	0		
-0.020578144073486328	-0.005541922092437744	0		0.21788092041015625	-2.77363623046875	0		-1.0435640869140625	-0.1631515350341797	0		-0.9556680908203125	-2.39938134765625	0		0.9055564575195313	-1.154854248046875	0		2.418198486328125	-0.61615283203125	0		3.8894677734375	-0.10795213317871094	0		5.6720830078125	0.17945779418945312	0		-0.30764260864257814	5.8473681640625	0		
0.034462169647216795	-1.1110900342464448E-4	0		0.24259573364257814	-2.780853515625	0		-1.011653564453125	-0.1673771514892578	0		-0.92093115234375	-2.406648681640625	0		0.8985310668945312	-1.148724609375	0		2.426900146484375	-0.635308837890625	0		3.8952861328125	-0.12016213989257812	0		5.66796826171875	0.17126028442382812	0		-0.32340957641601564	5.83968310546875	0		
-0.04658333587646484	-0.0010151879787445067	0		0.21444062805175781	-2.77741943359375	0		-1.0476756591796874	-0.16576969909667968	0		-0.92516357421875	-2.411438232421875	0		0.9214210815429688	-1.1499539794921876	0		2.423969970703125	-0.6243125610351562	0		3.882264892578125	-0.1191307144165039	0		5.65796484375	0.17214862060546876	0		-0.20396049499511718	5.8493505859375	0		
